<svg xmlns="http://www.w3.org/2000/svg" xmlns:xlink="http://www.w3.org/1999/xlink" xmlns:s="https://github.com/nturley/netlistsvg" width="523" height="464.5">
  <style>svg {
    stroke:#000;
    fill:none;
  }
  text {
    fill:#000;
    stroke:none;
    font-size:10px;
    font-weight: bold;
    font-family: "Courier New", monospace;
  }
  .nodelabel {
    text-anchor: middle;
  }
  .inputPortLabel {
    text-anchor: end;
  }
  .splitjoinBody {
    fill:#000;
  }</style>
  <g s:type="generic" transform="translate(278,305)" s:width="30" s:height="40" id="cell_$auto$ff.cc:337:slice$24">
    <text x="15" y="-4" class="nodelabel cell_$auto$ff.cc:337:slice$24" s:attribute="ref">$adffe</text>
    <rect width="30" height="80" s:generic="body" class="cell_$auto$ff.cc:337:slice$24"/>
    <g transform="translate(0,10)" s:x="0" s:y="10" s:pid="in0" id="port_$auto$ff.cc:337:slice$24~ARST">
      <text x="-3" y="-4" class="inputPortLabel cell_$auto$ff.cc:337:slice$24">ARST</text>
    </g>
    <g transform="translate(0,30)" s:x="0" s:y="10" s:pid="in0" id="port_$auto$ff.cc:337:slice$24~CLK">
      <text x="-3" y="-4" class="inputPortLabel cell_$auto$ff.cc:337:slice$24">CLK</text>
    </g>
    <g transform="translate(0,50)" s:x="0" s:y="10" s:pid="in0" id="port_$auto$ff.cc:337:slice$24~D">
      <text x="-3" y="-4" class="inputPortLabel cell_$auto$ff.cc:337:slice$24">D</text>
    </g>
    <g transform="translate(0,70)" s:x="0" s:y="10" s:pid="in0" id="port_$auto$ff.cc:337:slice$24~EN">
      <text x="-3" y="-4" class="inputPortLabel cell_$auto$ff.cc:337:slice$24">EN</text>
    </g>
    <g transform="translate(30,10)" s:x="30" s:y="10" s:pid="out0" id="port_$auto$ff.cc:337:slice$24~Q">
      <text x="5" y="-4" style="fill:#000; stroke:none" class="cell_$auto$ff.cc:337:slice$24">Q</text>
    </g>
  </g>
  <g s:type="generic" transform="translate(278,22)" s:width="30" s:height="40" id="cell_$auto$ff.cc:337:slice$25">
    <text x="15" y="-4" class="nodelabel cell_$auto$ff.cc:337:slice$25" s:attribute="ref">$adffe</text>
    <rect width="30" height="80" s:generic="body" class="cell_$auto$ff.cc:337:slice$25"/>
    <g transform="translate(0,10)" s:x="0" s:y="10" s:pid="in0" id="port_$auto$ff.cc:337:slice$25~ARST">
      <text x="-3" y="-4" class="inputPortLabel cell_$auto$ff.cc:337:slice$25">ARST</text>
    </g>
    <g transform="translate(0,30)" s:x="0" s:y="10" s:pid="in0" id="port_$auto$ff.cc:337:slice$25~CLK">
      <text x="-3" y="-4" class="inputPortLabel cell_$auto$ff.cc:337:slice$25">CLK</text>
    </g>
    <g transform="translate(0,50)" s:x="0" s:y="10" s:pid="in0" id="port_$auto$ff.cc:337:slice$25~D">
      <text x="-3" y="-4" class="inputPortLabel cell_$auto$ff.cc:337:slice$25">D</text>
    </g>
    <g transform="translate(0,70)" s:x="0" s:y="10" s:pid="in0" id="port_$auto$ff.cc:337:slice$25~EN">
      <text x="-3" y="-4" class="inputPortLabel cell_$auto$ff.cc:337:slice$25">EN</text>
    </g>
    <g transform="translate(30,10)" s:x="30" s:y="10" s:pid="out0" id="port_$auto$ff.cc:337:slice$25~Q">
      <text x="5" y="-4" style="fill:#000; stroke:none" class="cell_$auto$ff.cc:337:slice$25">Q</text>
    </g>
  </g>
  <g s:type="generic" transform="translate(300.25,150)" s:width="30" s:height="40" id="cell_$procdff$23">
    <text x="15" y="-4" class="nodelabel cell_$procdff$23" s:attribute="ref">$adff</text>
    <rect width="30" height="60" s:generic="body" class="cell_$procdff$23"/>
    <g transform="translate(0,10)" s:x="0" s:y="10" s:pid="in0" id="port_$procdff$23~ARST">
      <text x="-3" y="-4" class="inputPortLabel cell_$procdff$23">ARST</text>
    </g>
    <g transform="translate(0,30)" s:x="0" s:y="10" s:pid="in0" id="port_$procdff$23~CLK">
      <text x="-3" y="-4" class="inputPortLabel cell_$procdff$23">CLK</text>
    </g>
    <g transform="translate(0,50)" s:x="0" s:y="10" s:pid="in0" id="port_$procdff$23~D">
      <text x="-3" y="-4" class="inputPortLabel cell_$procdff$23">D</text>
    </g>
    <g transform="translate(30,10)" s:x="30" s:y="10" s:pid="out0" id="port_$procdff$23~Q">
      <text x="5" y="-4" style="fill:#000; stroke:none" class="cell_$procdff$23">Q</text>
    </g>
  </g>
  <g s:type="mux" transform="translate(174.33333333333334,52.5)" s:width="20" s:height="40" id="cell_$ternary$/home/ysara/fpga_hdl/qpsk_mod.v:30$3">
    <s:alias val="$pmux"/>
    <s:alias val="$mux"/>
    <s:alias val="$_MUX_"/>
    <path d="M0,0 L20,10 L20,30 L0,40 Z" class="cell_$ternary$/home/ysara/fpga_hdl/qpsk_mod.v:30$3"/>
    <g s:x="0" s:y="10" s:pid="A"/>
    <g s:x="0" s:y="30" s:pid="B"/>
    <g s:x="10" s:y="35" s:pid="S"/>
    <g s:x="20" s:y="20" s:pid="Y"/>
  </g>
  <g s:type="mux" transform="translate(174.33333333333334,335.5)" s:width="20" s:height="40" id="cell_$ternary$/home/ysara/fpga_hdl/qpsk_mod.v:31$4">
    <s:alias val="$pmux"/>
    <s:alias val="$mux"/>
    <s:alias val="$_MUX_"/>
    <path d="M0,0 L20,10 L20,30 L0,40 Z" class="cell_$ternary$/home/ysara/fpga_hdl/qpsk_mod.v:31$4"/>
    <g s:x="0" s:y="10" s:pid="A"/>
    <g s:x="0" s:y="30" s:pid="B"/>
    <g s:x="10" s:y="35" s:pid="S"/>
    <g s:x="20" s:y="20" s:pid="Y"/>
  </g>
  <g s:type="inputExt" transform="translate(165,215.5)" s:width="30" s:height="20" id="cell_clk">
    <text x="15" y="-4" class="nodelabel cell_clk" s:attribute="ref">clk</text>
    <s:alias val="$_inputExt_"/>
    <path d="M0,0 L0,20 L15,20 L30,10 L15,0 Z" class="cell_clk"/>
    <g s:x="28" s:y="10" s:pid="Y"/>
  </g>
  <g s:type="inputExt" transform="translate(165,150.5)" s:width="30" s:height="20" id="cell_rst_n">
    <text x="15" y="-4" class="nodelabel cell_rst_n" s:attribute="ref">rst_n</text>
    <s:alias val="$_inputExt_"/>
    <path d="M0,0 L0,20 L15,20 L30,10 L15,0 Z" class="cell_rst_n"/>
    <g s:x="28" s:y="10" s:pid="Y"/>
  </g>
  <g s:type="inputExt" transform="translate(12,423)" s:width="30" s:height="20" id="cell_bits_in">
    <text x="15" y="-4" class="nodelabel cell_bits_in" s:attribute="ref">bits_in</text>
    <s:alias val="$_inputExt_"/>
    <path d="M0,0 L0,20 L15,20 L30,10 L15,0 Z" class="cell_bits_in"/>
    <g s:x="28" s:y="10" s:pid="Y"/>
  </g>
  <g s:type="inputExt" transform="translate(165,280.5)" s:width="30" s:height="20" id="cell_valid_in">
    <text x="15" y="-4" class="nodelabel cell_valid_in" s:attribute="ref">valid_in</text>
    <s:alias val="$_inputExt_"/>
    <path d="M0,0 L0,20 L15,20 L30,10 L15,0 Z" class="cell_valid_in"/>
    <g s:x="28" s:y="10" s:pid="Y"/>
  </g>
  <g s:type="outputExt" transform="translate(457,22.5)" s:width="30" s:height="20" id="cell_I_out">
    <text x="15" y="-4" class="nodelabel cell_I_out" s:attribute="ref">I_out</text>
    <s:alias val="$_outputExt_"/>
    <path d="M30,0 L30,20 L15,20 L0,10 L15,0 Z" class="cell_I_out"/>
    <g s:x="0" s:y="10" s:pid="A"/>
  </g>
  <g s:type="outputExt" transform="translate(457,305.5)" s:width="30" s:height="20" id="cell_Q_out">
    <text x="15" y="-4" class="nodelabel cell_Q_out" s:attribute="ref">Q_out</text>
    <s:alias val="$_outputExt_"/>
    <path d="M30,0 L30,20 L15,20 L0,10 L15,0 Z" class="cell_Q_out"/>
    <g s:x="0" s:y="10" s:pid="A"/>
  </g>
  <g s:type="outputExt" transform="translate(457,150.5)" s:width="30" s:height="20" id="cell_valid_out">
    <text x="15" y="-4" class="nodelabel cell_valid_out" s:attribute="ref">valid_out</text>
    <s:alias val="$_outputExt_"/>
    <path d="M30,0 L30,20 L15,20 L0,10 L15,0 Z" class="cell_valid_out"/>
    <g s:x="0" s:y="10" s:pid="A"/>
  </g>
  <g s:type="constant" transform="translate(89,52.5)" s:width="30" s:height="20" id="cell_0001011010100001">
    <text x="15" y="-4" class="nodelabel cell_0001011010100001" s:attribute="ref">0x16a1</text>
    <s:alias val="$_constant_"/>
    <rect width="30" height="20" class="cell_0001011010100001"/>
    <g s:x="30" s:y="10" s:pid="Y"/>
  </g>
  <g s:type="constant" transform="translate(89,355.5)" s:width="30" s:height="20" id="cell_1110100101011111">
    <text x="15" y="-4" class="nodelabel cell_1110100101011111" s:attribute="ref">0xe95f</text>
    <s:alias val="$_constant_"/>
    <rect width="30" height="20" class="cell_1110100101011111"/>
    <g s:x="30" s:y="10" s:pid="Y"/>
  </g>
  <g s:type="split" transform="translate(107.33333333333333,412.5)" s:width="5" s:height="40" id="cell_$split$,4,5,">
    <rect width="5" height="40" class="splitjoinBody" s:generic="body"/>
    <s:alias val="$_split_"/>
    <g s:x="0" s:y="20" s:pid="in"/>
    <g transform="translate(4,10)" s:x="4" s:y="10" s:pid="out0">
      <text x="5" y="-4">0</text>
    </g>
    <g transform="translate(4,30)" s:x="4" s:y="10" s:pid="out0">
      <text x="5" y="-4">1</text>
    </g>
  </g>
  <line x1="193" x2="243" y1="160.5" y2="160.5" class="net_3"/>
  <line x1="243" x2="243" y1="160.5" y2="315.5" class="net_3"/>
  <circle cx="243" cy="160.5" r="2" style="fill:#000" class="net_3"/>
  <line x1="243" x2="278" y1="315.5" y2="315.5" class="net_3"/>
  <line x1="193" x2="243" y1="160.5" y2="160.5" class="net_3"/>
  <line x1="243" x2="243" y1="160.5" y2="32.5" class="net_3"/>
  <line x1="243" x2="278" y1="32.5" y2="32.5" class="net_3"/>
  <line x1="193" x2="300.25" y1="160.5" y2="160.5" class="net_3"/>
  <line x1="193" x2="233" y1="225.5" y2="225.5" class="net_2"/>
  <line x1="233" x2="233" y1="225.5" y2="335.5" class="net_2"/>
  <circle cx="233" cy="225.5" r="2" style="fill:#000" class="net_2"/>
  <line x1="233" x2="278" y1="335.5" y2="335.5" class="net_2"/>
  <line x1="193" x2="233" y1="225.5" y2="225.5" class="net_2"/>
  <line x1="233" x2="233" y1="225.5" y2="52.5" class="net_2"/>
  <line x1="233" x2="278" y1="52.5" y2="52.5" class="net_2"/>
  <line x1="193" x2="233" y1="225.5" y2="225.5" class="net_2"/>
  <line x1="233" x2="233" y1="225.5" y2="180.5" class="net_2"/>
  <circle cx="233" cy="180.5" r="2" style="fill:#000" class="net_2"/>
  <line x1="233" x2="300.25" y1="180.5" y2="180.5" class="net_2"/>
  <line x1="194.33333333333334" x2="278" y1="355.5" y2="355.5" class="net_40,41,42,43,44,45,46,47,48,49,50,51,52,53,54,55"/>
  <line x1="193" x2="223" y1="290.5" y2="290.5" class="net_6"/>
  <line x1="223" x2="223" y1="290.5" y2="375.5" class="net_6"/>
  <circle cx="223" cy="290.5" r="2" style="fill:#000" class="net_6"/>
  <line x1="223" x2="278" y1="375.5" y2="375.5" class="net_6"/>
  <line x1="193" x2="223" y1="290.5" y2="290.5" class="net_6"/>
  <line x1="223" x2="223" y1="290.5" y2="92.5" class="net_6"/>
  <line x1="223" x2="278" y1="92.5" y2="92.5" class="net_6"/>
  <line x1="193" x2="223" y1="290.5" y2="290.5" class="net_6"/>
  <line x1="223" x2="223" y1="290.5" y2="200.5" class="net_6"/>
  <circle cx="223" cy="200.5" r="2" style="fill:#000" class="net_6"/>
  <line x1="223" x2="300.25" y1="200.5" y2="200.5" class="net_6"/>
  <line x1="194.33333333333334" x2="278" y1="72.5" y2="72.5" class="net_56,57,58,59,60,61,62,63,64,65,66,67,68,69,70,71"/>
  <line x1="119" x2="174.33333333333334" y1="62.5" y2="62.5" class="net_72,73,74,75,76,77,78,79,80,81,82,83,84,85,86,87"/>
  <line x1="119" x2="155" y1="62.5" y2="62.5" class="net_72,73,74,75,76,77,78,79,80,81,82,83,84,85,86,87"/>
  <line x1="155" x2="155" y1="62.5" y2="345.5" class="net_72,73,74,75,76,77,78,79,80,81,82,83,84,85,86,87"/>
  <circle cx="155" cy="62.5" r="2" style="fill:#000" class="net_72,73,74,75,76,77,78,79,80,81,82,83,84,85,86,87"/>
  <line x1="155" x2="174.33333333333334" y1="345.5" y2="345.5" class="net_72,73,74,75,76,77,78,79,80,81,82,83,84,85,86,87"/>
  <line x1="119" x2="135" y1="365.5" y2="365.5" class="net_88,89,90,91,92,93,94,95,96,97,98,99,100,101,102,103"/>
  <line x1="135" x2="135" y1="365.5" y2="82.5" class="net_88,89,90,91,92,93,94,95,96,97,98,99,100,101,102,103"/>
  <circle cx="135" cy="365.5" r="2" style="fill:#000" class="net_88,89,90,91,92,93,94,95,96,97,98,99,100,101,102,103"/>
  <line x1="135" x2="174.33333333333334" y1="82.5" y2="82.5" class="net_88,89,90,91,92,93,94,95,96,97,98,99,100,101,102,103"/>
  <line x1="119" x2="174.33333333333334" y1="365.5" y2="365.5" class="net_88,89,90,91,92,93,94,95,96,97,98,99,100,101,102,103"/>
  <line x1="112.33333333333333" x2="145" y1="423" y2="423" class="net_4"/>
  <line x1="145" x2="145" y1="423" y2="130.5" class="net_4"/>
  <line x1="145" x2="184.33333333333334" y1="130.5" y2="130.5" class="net_4"/>
  <line x1="184.33333333333334" x2="184.33333333333334" y1="130.5" y2="87.5" class="net_4"/>
  <line x1="112.33333333333333" x2="184.33333333333334" y1="443" y2="443" class="net_5"/>
  <line x1="184.33333333333334" x2="184.33333333333334" y1="443" y2="370.5" class="net_5"/>
  <line x1="309" x2="457" y1="32.5" y2="32.5" class="net_7,8,9,10,11,12,13,14,15,16,17,18,19,20,21,22"/>
  <line x1="309" x2="457" y1="315.5" y2="315.5" class="net_23,24,25,26,27,28,29,30,31,32,33,34,35,36,37,38"/>
  <line x1="331.25" x2="457" y1="160.5" y2="160.5" class="net_39"/>
  <line x1="40" x2="107.33333333333333" y1="433" y2="433" class="net_4,5"/>
</svg>
