<svg xmlns="http://www.w3.org/2000/svg" xmlns:xlink="http://www.w3.org/1999/xlink" xmlns:s="https://github.com/nturley/netlistsvg" width="716" height="747">
  <style>svg {
    stroke:#000;
    fill:none;
  }
  text {
    fill:#000;
    stroke:none;
    font-size:10px;
    font-weight: bold;
    font-family: "Courier New", monospace;
  }
  .nodelabel {
    text-anchor: middle;
  }
  .inputPortLabel {
    text-anchor: end;
  }
  .splitjoinBody {
    fill:#000;
  }</style>
  <g s:type="generic" transform="translate(471,614.5)" s:width="30" s:height="40" id="cell_$auto$ff.cc:337:slice$90">
    <text x="15" y="-4" class="nodelabel cell_$auto$ff.cc:337:slice$90" s:attribute="ref">$adffe</text>
    <rect width="30" height="80" s:generic="body" class="cell_$auto$ff.cc:337:slice$90"/>
    <g transform="translate(0,10)" s:x="0" s:y="10" s:pid="in0" id="port_$auto$ff.cc:337:slice$90~ARST">
      <text x="-3" y="-4" class="inputPortLabel cell_$auto$ff.cc:337:slice$90">ARST</text>
    </g>
    <g transform="translate(0,30)" s:x="0" s:y="10" s:pid="in0" id="port_$auto$ff.cc:337:slice$90~CLK">
      <text x="-3" y="-4" class="inputPortLabel cell_$auto$ff.cc:337:slice$90">CLK</text>
    </g>
    <g transform="translate(0,50)" s:x="0" s:y="10" s:pid="in0" id="port_$auto$ff.cc:337:slice$90~D">
      <text x="-3" y="-4" class="inputPortLabel cell_$auto$ff.cc:337:slice$90">D</text>
    </g>
    <g transform="translate(0,70)" s:x="0" s:y="10" s:pid="in0" id="port_$auto$ff.cc:337:slice$90~EN">
      <text x="-3" y="-4" class="inputPortLabel cell_$auto$ff.cc:337:slice$90">EN</text>
    </g>
    <g transform="translate(30,10)" s:x="30" s:y="10" s:pid="out0" id="port_$auto$ff.cc:337:slice$90~Q">
      <text x="5" y="-4" style="fill:#000; stroke:none" class="cell_$auto$ff.cc:337:slice$90">Q</text>
    </g>
  </g>
  <g s:type="generic" transform="translate(471,46.5)" s:width="30" s:height="40" id="cell_$auto$ff.cc:337:slice$91">
    <text x="15" y="-4" class="nodelabel cell_$auto$ff.cc:337:slice$91" s:attribute="ref">$adffe</text>
    <rect width="30" height="80" s:generic="body" class="cell_$auto$ff.cc:337:slice$91"/>
    <g transform="translate(0,10)" s:x="0" s:y="10" s:pid="in0" id="port_$auto$ff.cc:337:slice$91~ARST">
      <text x="-3" y="-4" class="inputPortLabel cell_$auto$ff.cc:337:slice$91">ARST</text>
    </g>
    <g transform="translate(0,30)" s:x="0" s:y="10" s:pid="in0" id="port_$auto$ff.cc:337:slice$91~CLK">
      <text x="-3" y="-4" class="inputPortLabel cell_$auto$ff.cc:337:slice$91">CLK</text>
    </g>
    <g transform="translate(0,50)" s:x="0" s:y="10" s:pid="in0" id="port_$auto$ff.cc:337:slice$91~D">
      <text x="-3" y="-4" class="inputPortLabel cell_$auto$ff.cc:337:slice$91">D</text>
    </g>
    <g transform="translate(0,70)" s:x="0" s:y="10" s:pid="in0" id="port_$auto$ff.cc:337:slice$91~EN">
      <text x="-3" y="-4" class="inputPortLabel cell_$auto$ff.cc:337:slice$91">EN</text>
    </g>
    <g transform="translate(30,10)" s:x="30" s:y="10" s:pid="out0" id="port_$auto$ff.cc:337:slice$91~Q">
      <text x="5" y="-4" style="fill:#000; stroke:none" class="cell_$auto$ff.cc:337:slice$91">Q</text>
    </g>
  </g>
  <g s:type="gt" transform="translate(289.6666666666667,182.5)" s:width="25" s:height="25" id="cell_$gt$/home/ysara/fpga_hdl/qpsk_demod.v:28$19">
    <s:alias val="$gt"/>
    <circle r="12.5" cx="12.5" cy="12.5" class="cell_$gt$/home/ysara/fpga_hdl/qpsk_demod.v:28$19"/>
    <line x1="7.5" x2="17.5" y1="7.5" y2="12.5" class="cell_$gt$/home/ysara/fpga_hdl/qpsk_demod.v:28$19"/>
    <line x1="7.5" x2="17.5" y1="17.5" y2="12.5" class="cell_$gt$/home/ysara/fpga_hdl/qpsk_demod.v:28$19"/>
    <g s:x="3" s:y="5" s:pid="A"/>
    <g s:x="3" s:y="20" s:pid="B"/>
    <g s:x="25" s:y="12.5" s:pid="Y"/>
  </g>
  <g s:type="gt" transform="translate(289.6666666666667,242.5)" s:width="25" s:height="25" id="cell_$gt$/home/ysara/fpga_hdl/qpsk_demod.v:28$23">
    <s:alias val="$gt"/>
    <circle r="12.5" cx="12.5" cy="12.5" class="cell_$gt$/home/ysara/fpga_hdl/qpsk_demod.v:28$23"/>
    <line x1="7.5" x2="17.5" y1="7.5" y2="12.5" class="cell_$gt$/home/ysara/fpga_hdl/qpsk_demod.v:28$23"/>
    <line x1="7.5" x2="17.5" y1="17.5" y2="12.5" class="cell_$gt$/home/ysara/fpga_hdl/qpsk_demod.v:28$23"/>
    <g s:x="3" s:y="5" s:pid="A"/>
    <g s:x="3" s:y="20" s:pid="B"/>
    <g s:x="25" s:y="12.5" s:pid="Y"/>
  </g>
  <g s:type="lt" transform="translate(219.66666666666666,550)" s:width="25" s:height="25" id="cell_$lt$/home/ysara/fpga_hdl/qpsk_demod.v:29$21">
    <s:alias val="$lt"/>
    <circle r="12.5" cx="12.5" cy="12.5" class="cell_$lt$/home/ysara/fpga_hdl/qpsk_demod.v:29$21"/>
    <line x1="7.5" x2="17.5" y1="12.5" y2="7.5" class="cell_$lt$/home/ysara/fpga_hdl/qpsk_demod.v:29$21"/>
    <line x1="7.5" x2="17.5" y1="12.5" y2="17.5" class="cell_$lt$/home/ysara/fpga_hdl/qpsk_demod.v:29$21"/>
    <g s:x="3" s:y="5" s:pid="A"/>
    <g s:x="3" s:y="20" s:pid="B"/>
    <g s:x="25" s:y="12.5" s:pid="Y"/>
  </g>
  <g s:type="lt" transform="translate(219.66666666666666,610)" s:width="25" s:height="25" id="cell_$lt$/home/ysara/fpga_hdl/qpsk_demod.v:29$25">
    <s:alias val="$lt"/>
    <circle r="12.5" cx="12.5" cy="12.5" class="cell_$lt$/home/ysara/fpga_hdl/qpsk_demod.v:29$25"/>
    <line x1="7.5" x2="17.5" y1="12.5" y2="7.5" class="cell_$lt$/home/ysara/fpga_hdl/qpsk_demod.v:29$25"/>
    <line x1="7.5" x2="17.5" y1="12.5" y2="17.5" class="cell_$lt$/home/ysara/fpga_hdl/qpsk_demod.v:29$25"/>
    <g s:x="3" s:y="5" s:pid="A"/>
    <g s:x="3" s:y="20" s:pid="B"/>
    <g s:x="25" s:y="12.5" s:pid="Y"/>
  </g>
  <g s:type="generic" transform="translate(493.25,174.5)" s:width="30" s:height="40" id="cell_$procdff$89">
    <text x="15" y="-4" class="nodelabel cell_$procdff$89" s:attribute="ref">$adff</text>
    <rect width="30" height="60" s:generic="body" class="cell_$procdff$89"/>
    <g transform="translate(0,10)" s:x="0" s:y="10" s:pid="in0" id="port_$procdff$89~ARST">
      <text x="-3" y="-4" class="inputPortLabel cell_$procdff$89">ARST</text>
    </g>
    <g transform="translate(0,30)" s:x="0" s:y="10" s:pid="in0" id="port_$procdff$89~CLK">
      <text x="-3" y="-4" class="inputPortLabel cell_$procdff$89">CLK</text>
    </g>
    <g transform="translate(0,50)" s:x="0" s:y="10" s:pid="in0" id="port_$procdff$89~D">
      <text x="-3" y="-4" class="inputPortLabel cell_$procdff$89">D</text>
    </g>
    <g transform="translate(30,10)" s:x="30" s:y="10" s:pid="out0" id="port_$procdff$89~Q">
      <text x="5" y="-4" style="fill:#000; stroke:none" class="cell_$procdff$89">Q</text>
    </g>
  </g>
  <g s:type="mux" transform="translate(291.3333333333333,635)" s:width="20" s:height="40" id="cell_$procmux$29">
    <s:alias val="$pmux"/>
    <s:alias val="$mux"/>
    <s:alias val="$_MUX_"/>
    <path d="M0,0 L20,10 L20,30 L0,40 Z" class="cell_$procmux$29"/>
    <g s:x="0" s:y="10" s:pid="A"/>
    <g s:x="0" s:y="30" s:pid="B"/>
    <g s:x="10" s:y="35" s:pid="S"/>
    <g s:x="20" s:y="20" s:pid="Y"/>
  </g>
  <g s:type="mux" transform="translate(367.3333333333333,645)" s:width="20" s:height="40" id="cell_$procmux$38">
    <s:alias val="$pmux"/>
    <s:alias val="$mux"/>
    <s:alias val="$_MUX_"/>
    <path d="M0,0 L20,10 L20,30 L0,40 Z" class="cell_$procmux$38"/>
    <g s:x="0" s:y="10" s:pid="A"/>
    <g s:x="0" s:y="30" s:pid="B"/>
    <g s:x="10" s:y="35" s:pid="S"/>
    <g s:x="20" s:y="20" s:pid="Y"/>
  </g>
  <g s:type="mux" transform="translate(291.3333333333333,337)" s:width="20" s:height="40" id="cell_$procmux$44">
    <s:alias val="$pmux"/>
    <s:alias val="$mux"/>
    <s:alias val="$_MUX_"/>
    <path d="M0,0 L20,10 L20,30 L0,40 Z" class="cell_$procmux$44"/>
    <g s:x="0" s:y="10" s:pid="A"/>
    <g s:x="0" s:y="30" s:pid="B"/>
    <g s:x="10" s:y="35" s:pid="S"/>
    <g s:x="20" s:y="20" s:pid="Y"/>
  </g>
  <g s:type="mux" transform="translate(367.3333333333333,77)" s:width="20" s:height="40" id="cell_$procmux$53">
    <s:alias val="$pmux"/>
    <s:alias val="$mux"/>
    <s:alias val="$_MUX_"/>
    <path d="M0,0 L20,10 L20,30 L0,40 Z" class="cell_$procmux$53"/>
    <g s:x="0" s:y="10" s:pid="A"/>
    <g s:x="0" s:y="30" s:pid="B"/>
    <g s:x="10" s:y="35" s:pid="S"/>
    <g s:x="20" s:y="20" s:pid="Y"/>
  </g>
  <g s:type="inputExt" transform="translate(358,22)" s:width="30" s:height="20" id="cell_clk">
    <text x="15" y="-4" class="nodelabel cell_clk" s:attribute="ref">clk</text>
    <s:alias val="$_inputExt_"/>
    <path d="M0,0 L0,20 L15,20 L30,10 L15,0 Z" class="cell_clk"/>
    <g s:x="28" s:y="10" s:pid="Y"/>
  </g>
  <g s:type="inputExt" transform="translate(358,715)" s:width="30" s:height="20" id="cell_rst_n">
    <text x="15" y="-4" class="nodelabel cell_rst_n" s:attribute="ref">rst_n</text>
    <s:alias val="$_inputExt_"/>
    <path d="M0,0 L0,20 L15,20 L30,10 L15,0 Z" class="cell_rst_n"/>
    <g s:x="28" s:y="10" s:pid="Y"/>
  </g>
  <g s:type="inputExt" transform="translate(12,155)" s:width="30" s:height="20" id="cell_I_in">
    <text x="15" y="-4" class="nodelabel cell_I_in" s:attribute="ref">I_in</text>
    <s:alias val="$_inputExt_"/>
    <path d="M0,0 L0,20 L15,20 L30,10 L15,0 Z" class="cell_I_in"/>
    <g s:x="28" s:y="10" s:pid="Y"/>
  </g>
  <g s:type="inputExt" transform="translate(12,358)" s:width="30" s:height="20" id="cell_Q_in">
    <text x="15" y="-4" class="nodelabel cell_Q_in" s:attribute="ref">Q_in</text>
    <s:alias val="$_inputExt_"/>
    <path d="M0,0 L0,20 L15,20 L30,10 L15,0 Z" class="cell_Q_in"/>
    <g s:x="28" s:y="10" s:pid="Y"/>
  </g>
  <g s:type="inputExt" transform="translate(358,215)" s:width="30" s:height="20" id="cell_valid_in">
    <text x="15" y="-4" class="nodelabel cell_valid_in" s:attribute="ref">valid_in</text>
    <s:alias val="$_inputExt_"/>
    <path d="M0,0 L0,20 L15,20 L30,10 L15,0 Z" class="cell_valid_in"/>
    <g s:x="28" s:y="10" s:pid="Y"/>
  </g>
  <g s:type="outputExt" transform="translate(650,47)" s:width="30" s:height="20" id="cell_llr0">
    <text x="15" y="-4" class="nodelabel cell_llr0" s:attribute="ref">llr0</text>
    <s:alias val="$_outputExt_"/>
    <path d="M30,0 L30,20 L15,20 L0,10 L15,0 Z" class="cell_llr0"/>
    <g s:x="0" s:y="10" s:pid="A"/>
  </g>
  <g s:type="outputExt" transform="translate(650,615)" s:width="30" s:height="20" id="cell_llr1">
    <text x="15" y="-4" class="nodelabel cell_llr1" s:attribute="ref">llr1</text>
    <s:alias val="$_outputExt_"/>
    <path d="M30,0 L30,20 L15,20 L0,10 L15,0 Z" class="cell_llr1"/>
    <g s:x="0" s:y="10" s:pid="A"/>
  </g>
  <g s:type="outputExt" transform="translate(650,175)" s:width="30" s:height="20" id="cell_valid_out">
    <text x="15" y="-4" class="nodelabel cell_valid_out" s:attribute="ref">valid_out</text>
    <s:alias val="$_outputExt_"/>
    <path d="M30,0 L30,20 L15,20 L0,10 L15,0 Z" class="cell_valid_out"/>
    <g s:x="0" s:y="10" s:pid="A"/>
  </g>
  <g s:type="constant" transform="translate(218,252.5)" s:width="30" s:height="20" id="cell_0000000001111111">
    <text x="15" y="-4" class="nodelabel cell_0000000001111111" s:attribute="ref">0x7f</text>
    <s:alias val="$_constant_"/>
    <rect width="30" height="20" class="cell_0000000001111111"/>
    <g s:x="30" s:y="10" s:pid="Y"/>
  </g>
  <g s:type="constant" transform="translate(142,560)" s:width="30" s:height="20" id="cell_1111111110000001">
    <text x="15" y="-4" class="nodelabel cell_1111111110000001" s:attribute="ref">0xff81</text>
    <s:alias val="$_constant_"/>
    <rect width="30" height="20" class="cell_1111111110000001"/>
    <g s:x="30" s:y="10" s:pid="Y"/>
  </g>
  <g s:type="constant" transform="translate(218,411.5)" s:width="30" s:height="20" id="cell_10000001">
    <text x="15" y="-4" class="nodelabel cell_10000001" s:attribute="ref">0x81</text>
    <s:alias val="$_constant_"/>
    <rect width="30" height="20" class="cell_10000001"/>
    <g s:x="30" s:y="10" s:pid="Y"/>
  </g>
  <g s:type="constant" transform="translate(288,97)" s:width="30" s:height="20" id="cell_01111111">
    <text x="15" y="-4" class="nodelabel cell_01111111" s:attribute="ref">0x7f</text>
    <s:alias val="$_constant_"/>
    <rect width="30" height="20" class="cell_01111111"/>
    <g s:x="30" s:y="10" s:pid="Y"/>
  </g>
  <g s:type="join" transform="translate(146.57142857142858,167)" s:width="4" s:height="40" id="cell_$join$,11,12,13,14,15,16,17,18,19,19,19,19,19,19,19,19,">
    <rect width="5" height="160" class="splitjoinBody" s:generic="body"/>
    <s:alias val="$_join_"/>
    <g s:x="5" s:y="20" s:pid="out"/>
    <g transform="translate(0,10)" s:x="0" s:y="10" s:pid="in0">
      <text x="-3" y="-4" class="inputPortLabel">0:8</text>
    </g>
    <g transform="translate(0,30)" s:x="0" s:y="10" s:pid="in0">
      <text x="-3" y="-4" class="inputPortLabel">9</text>
    </g>
    <g transform="translate(0,50)" s:x="0" s:y="10" s:pid="in0">
      <text x="-3" y="-4" class="inputPortLabel">10</text>
    </g>
    <g transform="translate(0,70)" s:x="0" s:y="10" s:pid="in0">
      <text x="-3" y="-4" class="inputPortLabel">11</text>
    </g>
    <g transform="translate(0,90)" s:x="0" s:y="10" s:pid="in0">
      <text x="-3" y="-4" class="inputPortLabel">12</text>
    </g>
    <g transform="translate(0,110)" s:x="0" s:y="10" s:pid="in0">
      <text x="-3" y="-4" class="inputPortLabel">13</text>
    </g>
    <g transform="translate(0,130)" s:x="0" s:y="10" s:pid="in0">
      <text x="-3" y="-4" class="inputPortLabel">14</text>
    </g>
    <g transform="translate(0,150)" s:x="0" s:y="10" s:pid="in0">
      <text x="-3" y="-4" class="inputPortLabel">15</text>
    </g>
  </g>
  <g s:type="join" transform="translate(146.57142857142858,370)" s:width="4" s:height="40" id="cell_$join$,27,28,29,30,31,32,33,34,35,35,35,35,35,35,35,35,">
    <rect width="5" height="160" class="splitjoinBody" s:generic="body"/>
    <s:alias val="$_join_"/>
    <g s:x="5" s:y="20" s:pid="out"/>
    <g transform="translate(0,10)" s:x="0" s:y="10" s:pid="in0">
      <text x="-3" y="-4" class="inputPortLabel">0:8</text>
    </g>
    <g transform="translate(0,30)" s:x="0" s:y="10" s:pid="in0">
      <text x="-3" y="-4" class="inputPortLabel">9</text>
    </g>
    <g transform="translate(0,50)" s:x="0" s:y="10" s:pid="in0">
      <text x="-3" y="-4" class="inputPortLabel">10</text>
    </g>
    <g transform="translate(0,70)" s:x="0" s:y="10" s:pid="in0">
      <text x="-3" y="-4" class="inputPortLabel">11</text>
    </g>
    <g transform="translate(0,90)" s:x="0" s:y="10" s:pid="in0">
      <text x="-3" y="-4" class="inputPortLabel">12</text>
    </g>
    <g transform="translate(0,110)" s:x="0" s:y="10" s:pid="in0">
      <text x="-3" y="-4" class="inputPortLabel">13</text>
    </g>
    <g transform="translate(0,130)" s:x="0" s:y="10" s:pid="in0">
      <text x="-3" y="-4" class="inputPortLabel">14</text>
    </g>
    <g transform="translate(0,150)" s:x="0" s:y="10" s:pid="in0">
      <text x="-3" y="-4" class="inputPortLabel">15</text>
    </g>
  </g>
  <g s:type="split" transform="translate(77,144.5)" s:width="5" s:height="40" id="cell_$split$,4,5,6,7,8,9,10,11,12,13,14,15,16,17,18,19,">
    <rect width="5" height="60" class="splitjoinBody" s:generic="body"/>
    <s:alias val="$_split_"/>
    <g s:x="0" s:y="20" s:pid="in"/>
    <g transform="translate(4,10)" s:x="4" s:y="10" s:pid="out0">
      <text x="5" y="-4">7:15</text>
    </g>
    <g transform="translate(4,30)" s:x="4" s:y="10" s:pid="out0">
      <text x="5" y="-4">15</text>
    </g>
    <g transform="translate(4,50)" s:x="4" s:y="10" s:pid="out0">
      <text x="5" y="-4">7:14</text>
    </g>
  </g>
  <g s:type="split" transform="translate(77,347.5)" s:width="5" s:height="40" id="cell_$split$,20,21,22,23,24,25,26,27,28,29,30,31,32,33,34,35,">
    <rect width="5" height="60" class="splitjoinBody" s:generic="body"/>
    <s:alias val="$_split_"/>
    <g s:x="0" s:y="20" s:pid="in"/>
    <g transform="translate(4,10)" s:x="4" s:y="10" s:pid="out0">
      <text x="5" y="-4">7:15</text>
    </g>
    <g transform="translate(4,30)" s:x="4" s:y="10" s:pid="out0">
      <text x="5" y="-4">15</text>
    </g>
    <g transform="translate(4,50)" s:x="4" s:y="10" s:pid="out0">
      <text x="5" y="-4">7:14</text>
    </g>
  </g>
  <line x1="386" x2="426" y1="725" y2="725" class="net_3"/>
  <line x1="426" x2="426" y1="725" y2="625" class="net_3"/>
  <circle cx="426" cy="625" r="2" style="fill:#000" class="net_3"/>
  <line x1="426" x2="471" y1="625" y2="625" class="net_3"/>
  <line x1="386" x2="426" y1="725" y2="725" class="net_3"/>
  <line x1="426" x2="426" y1="725" y2="57" class="net_3"/>
  <line x1="426" x2="471" y1="57" y2="57" class="net_3"/>
  <line x1="386" x2="426" y1="725" y2="725" class="net_3"/>
  <line x1="426" x2="426" y1="725" y2="185" class="net_3"/>
  <circle cx="426" cy="185" r="2" style="fill:#000" class="net_3"/>
  <line x1="426" x2="493.25" y1="185" y2="185" class="net_3"/>
  <line x1="386" x2="436" y1="32" y2="32" class="net_2"/>
  <line x1="436" x2="436" y1="32" y2="645" class="net_2"/>
  <line x1="436" x2="471" y1="645" y2="645" class="net_2"/>
  <line x1="386" x2="436" y1="32" y2="32" class="net_2"/>
  <line x1="436" x2="436" y1="32" y2="77" class="net_2"/>
  <circle cx="436" cy="77" r="2" style="fill:#000" class="net_2"/>
  <line x1="436" x2="471" y1="77" y2="77" class="net_2"/>
  <line x1="386" x2="436" y1="32" y2="32" class="net_2"/>
  <line x1="436" x2="436" y1="32" y2="205" class="net_2"/>
  <circle cx="436" cy="205" r="2" style="fill:#000" class="net_2"/>
  <line x1="436" x2="493.25" y1="205" y2="205" class="net_2"/>
  <line x1="387.3333333333333" x2="471" y1="665" y2="665" class="net_54,55,56,57,58,59,60,61"/>
  <line x1="386" x2="416" y1="225" y2="225" class="net_36"/>
  <line x1="416" x2="416" y1="225" y2="685" class="net_36"/>
  <circle cx="416" cy="225" r="2" style="fill:#000" class="net_36"/>
  <line x1="416" x2="471" y1="685" y2="685" class="net_36"/>
  <line x1="386" x2="416" y1="225" y2="225" class="net_36"/>
  <line x1="416" x2="416" y1="225" y2="117" class="net_36"/>
  <line x1="416" x2="471" y1="117" y2="117" class="net_36"/>
  <line x1="386" x2="493.25" y1="225" y2="225" class="net_36"/>
  <line x1="387.3333333333333" x2="471" y1="97" y2="97" class="net_62,63,64,65,66,67,68,69"/>
  <line x1="152.57142857142858" x2="292.6666666666667" y1="187.5" y2="187.5" class="net_11,12,13,14,15,16,17,18,19,19,19,19,19,19,19,19"/>
  <line x1="152.57142857142858" x2="208" y1="187.5" y2="187.5" class="net_11,12,13,14,15,16,17,18,19,19,19,19,19,19,19,19"/>
  <line x1="208" x2="208" y1="187.5" y2="555" class="net_11,12,13,14,15,16,17,18,19,19,19,19,19,19,19,19"/>
  <circle cx="208" cy="187.5" r="2" style="fill:#000" class="net_11,12,13,14,15,16,17,18,19,19,19,19,19,19,19,19"/>
  <line x1="208" x2="222.66666666666666" y1="555" y2="555" class="net_11,12,13,14,15,16,17,18,19,19,19,19,19,19,19,19"/>
  <line x1="248" x2="258" y1="262.5" y2="262.5" class="net_90,91,92,93,94,95,96,97,98,99,100,101,102,103,104,105"/>
  <line x1="258" x2="258" y1="262.5" y2="202.5" class="net_90,91,92,93,94,95,96,97,98,99,100,101,102,103,104,105"/>
  <circle cx="258" cy="262.5" r="2" style="fill:#000" class="net_90,91,92,93,94,95,96,97,98,99,100,101,102,103,104,105"/>
  <line x1="258" x2="292.6666666666667" y1="202.5" y2="202.5" class="net_90,91,92,93,94,95,96,97,98,99,100,101,102,103,104,105"/>
  <line x1="248" x2="292.6666666666667" y1="262.5" y2="262.5" class="net_90,91,92,93,94,95,96,97,98,99,100,101,102,103,104,105"/>
  <line x1="152.57142857142858" x2="268" y1="390.5" y2="390.5" class="net_27,28,29,30,31,32,33,34,35,35,35,35,35,35,35,35"/>
  <line x1="268" x2="268" y1="390.5" y2="247.5" class="net_27,28,29,30,31,32,33,34,35,35,35,35,35,35,35,35"/>
  <line x1="268" x2="292.6666666666667" y1="247.5" y2="247.5" class="net_27,28,29,30,31,32,33,34,35,35,35,35,35,35,35,35"/>
  <line x1="152.57142857142858" x2="198" y1="390.5" y2="390.5" class="net_27,28,29,30,31,32,33,34,35,35,35,35,35,35,35,35"/>
  <line x1="198" x2="198" y1="390.5" y2="615" class="net_27,28,29,30,31,32,33,34,35,35,35,35,35,35,35,35"/>
  <circle cx="198" cy="390.5" r="2" style="fill:#000" class="net_27,28,29,30,31,32,33,34,35,35,35,35,35,35,35,35"/>
  <line x1="198" x2="222.66666666666666" y1="615" y2="615" class="net_27,28,29,30,31,32,33,34,35,35,35,35,35,35,35,35"/>
  <line x1="172" x2="222.66666666666666" y1="570" y2="570" class="net_122,123,124,125,126,127,128,129,130,131,132,133,134,135,136,137"/>
  <line x1="172" x2="188" y1="570" y2="570" class="net_122,123,124,125,126,127,128,129,130,131,132,133,134,135,136,137"/>
  <line x1="188" x2="188" y1="570" y2="630" class="net_122,123,124,125,126,127,128,129,130,131,132,133,134,135,136,137"/>
  <circle cx="188" cy="570" r="2" style="fill:#000" class="net_122,123,124,125,126,127,128,129,130,131,132,133,134,135,136,137"/>
  <line x1="188" x2="222.66666666666666" y1="630" y2="630" class="net_122,123,124,125,126,127,128,129,130,131,132,133,134,135,136,137"/>
  <line x1="82" x2="117" y1="398" y2="398" class="net_27,28,29,30,31,32,33,34"/>
  <line x1="117" x2="117" y1="398" y2="645" class="net_27,28,29,30,31,32,33,34"/>
  <line x1="117" x2="291.3333333333333" y1="645" y2="645" class="net_27,28,29,30,31,32,33,34"/>
  <line x1="248" x2="278" y1="421.5" y2="421.5" class="net_154,155,156,157,158,159,160,161"/>
  <line x1="278" x2="278" y1="421.5" y2="665" class="net_154,155,156,157,158,159,160,161"/>
  <circle cx="278" cy="421.5" r="2" style="fill:#000" class="net_154,155,156,157,158,159,160,161"/>
  <line x1="278" x2="291.3333333333333" y1="665" y2="665" class="net_154,155,156,157,158,159,160,161"/>
  <line x1="248" x2="278" y1="421.5" y2="421.5" class="net_154,155,156,157,158,159,160,161"/>
  <line x1="278" x2="278" y1="421.5" y2="367" class="net_154,155,156,157,158,159,160,161"/>
  <line x1="278" x2="291.3333333333333" y1="367" y2="367" class="net_154,155,156,157,158,159,160,161"/>
  <line x1="244.66666666666666" x2="258" y1="622.5" y2="622.5" class="net_73"/>
  <line x1="258" x2="258" y1="622.5" y2="685" class="net_73"/>
  <line x1="258" x2="301.3333333333333" y1="685" y2="685" class="net_73"/>
  <line x1="301.3333333333333" x2="301.3333333333333" y1="685" y2="670" class="net_73"/>
  <line x1="311.3333333333333" x2="367.3333333333333" y1="655" y2="655" class="net_74,75,76,77,78,79,80,81"/>
  <line x1="318" x2="348" y1="107" y2="107" class="net_162,163,164,165,166,167,168,169"/>
  <line x1="348" x2="348" y1="107" y2="675" class="net_162,163,164,165,166,167,168,169"/>
  <circle cx="348" cy="107" r="2" style="fill:#000" class="net_162,163,164,165,166,167,168,169"/>
  <line x1="348" x2="367.3333333333333" y1="675" y2="675" class="net_162,163,164,165,166,167,168,169"/>
  <line x1="318" x2="367.3333333333333" y1="107" y2="107" class="net_162,163,164,165,166,167,168,169"/>
  <line x1="314.6666666666667" x2="328" y1="255" y2="255" class="net_71"/>
  <line x1="328" x2="328" y1="255" y2="695" class="net_71"/>
  <line x1="328" x2="377.3333333333333" y1="695" y2="695" class="net_71"/>
  <line x1="377.3333333333333" x2="377.3333333333333" y1="695" y2="680" class="net_71"/>
  <line x1="82" x2="117" y1="195" y2="195" class="net_11,12,13,14,15,16,17,18"/>
  <line x1="117" x2="117" y1="195" y2="347" class="net_11,12,13,14,15,16,17,18"/>
  <line x1="117" x2="291.3333333333333" y1="347" y2="347" class="net_11,12,13,14,15,16,17,18"/>
  <line x1="244.66666666666666" x2="301.3333333333333" y1="562.5" y2="562.5" class="net_72"/>
  <line x1="301.3333333333333" x2="301.3333333333333" y1="562.5" y2="372" class="net_72"/>
  <line x1="311.3333333333333" x2="338" y1="357" y2="357" class="net_82,83,84,85,86,87,88,89"/>
  <line x1="338" x2="338" y1="357" y2="87" class="net_82,83,84,85,86,87,88,89"/>
  <line x1="338" x2="367.3333333333333" y1="87" y2="87" class="net_82,83,84,85,86,87,88,89"/>
  <line x1="314.6666666666667" x2="377.3333333333333" y1="195" y2="195" class="net_70"/>
  <line x1="377.3333333333333" x2="377.3333333333333" y1="195" y2="112" class="net_70"/>
  <line x1="502" x2="650" y1="57" y2="57" class="net_37,38,39,40,41,42,43,44"/>
  <line x1="502" x2="650" y1="625" y2="625" class="net_45,46,47,48,49,50,51,52"/>
  <line x1="524.25" x2="650" y1="185" y2="185" class="net_53"/>
  <line x1="82" x2="147.07142857142858" y1="155" y2="155" class="net_11,12,13,14,15,16,17,18,19"/>
  <line x1="147.07142857142858" x2="147.07142857142858" y1="155" y2="177" class="net_11,12,13,14,15,16,17,18,19"/>
  <line x1="82" x2="127" y1="175" y2="175" class="net_19"/>
  <line x1="127" x2="127" y1="175" y2="197.5" class="net_19"/>
  <circle cx="127" cy="197.5" r="2" style="fill:#000" class="net_19"/>
  <line x1="127" x2="146.57142857142858" y1="197.5" y2="197.5" class="net_19"/>
  <line x1="82" x2="127" y1="175" y2="175" class="net_19"/>
  <line x1="127" x2="127" y1="175" y2="217.5" class="net_19"/>
  <circle cx="127" cy="217.5" r="2" style="fill:#000" class="net_19"/>
  <line x1="127" x2="146.57142857142858" y1="217.5" y2="217.5" class="net_19"/>
  <line x1="82" x2="127" y1="175" y2="175" class="net_19"/>
  <line x1="127" x2="127" y1="175" y2="237.5" class="net_19"/>
  <circle cx="127" cy="237.5" r="2" style="fill:#000" class="net_19"/>
  <line x1="127" x2="146.57142857142858" y1="237.5" y2="237.5" class="net_19"/>
  <line x1="82" x2="127" y1="175" y2="175" class="net_19"/>
  <line x1="127" x2="127" y1="175" y2="257.5" class="net_19"/>
  <circle cx="127" cy="257.5" r="2" style="fill:#000" class="net_19"/>
  <line x1="127" x2="146.57142857142858" y1="257.5" y2="257.5" class="net_19"/>
  <line x1="82" x2="127" y1="175" y2="175" class="net_19"/>
  <line x1="127" x2="127" y1="175" y2="277.5" class="net_19"/>
  <circle cx="127" cy="277.5" r="2" style="fill:#000" class="net_19"/>
  <line x1="127" x2="146.57142857142858" y1="277.5" y2="277.5" class="net_19"/>
  <line x1="82" x2="127" y1="175" y2="175" class="net_19"/>
  <line x1="127" x2="127" y1="175" y2="297.5" class="net_19"/>
  <circle cx="127" cy="297.5" r="2" style="fill:#000" class="net_19"/>
  <line x1="127" x2="146.57142857142858" y1="297.5" y2="297.5" class="net_19"/>
  <line x1="82" x2="127" y1="175" y2="175" class="net_19"/>
  <line x1="127" x2="127" y1="175" y2="337" class="net_19"/>
  <line x1="127" x2="147.07142857142858" y1="337" y2="337" class="net_19"/>
  <line x1="147.07142857142858" x2="147.07142857142858" y1="337" y2="318" class="net_19"/>
  <line x1="82" x2="147.07142857142858" y1="358" y2="358" class="net_27,28,29,30,31,32,33,34,35"/>
  <line x1="147.07142857142858" x2="147.07142857142858" y1="358" y2="380" class="net_27,28,29,30,31,32,33,34,35"/>
  <line x1="82" x2="127" y1="378" y2="378" class="net_35"/>
  <line x1="127" x2="127" y1="378" y2="400.5" class="net_35"/>
  <circle cx="127" cy="400.5" r="2" style="fill:#000" class="net_35"/>
  <line x1="127" x2="146.57142857142858" y1="400.5" y2="400.5" class="net_35"/>
  <line x1="82" x2="127" y1="378" y2="378" class="net_35"/>
  <line x1="127" x2="127" y1="378" y2="420.5" class="net_35"/>
  <circle cx="127" cy="420.5" r="2" style="fill:#000" class="net_35"/>
  <line x1="127" x2="146.57142857142858" y1="420.5" y2="420.5" class="net_35"/>
  <line x1="82" x2="127" y1="378" y2="378" class="net_35"/>
  <line x1="127" x2="127" y1="378" y2="440.5" class="net_35"/>
  <circle cx="127" cy="440.5" r="2" style="fill:#000" class="net_35"/>
  <line x1="127" x2="146.57142857142858" y1="440.5" y2="440.5" class="net_35"/>
  <line x1="82" x2="127" y1="378" y2="378" class="net_35"/>
  <line x1="127" x2="127" y1="378" y2="460.5" class="net_35"/>
  <circle cx="127" cy="460.5" r="2" style="fill:#000" class="net_35"/>
  <line x1="127" x2="146.57142857142858" y1="460.5" y2="460.5" class="net_35"/>
  <line x1="82" x2="127" y1="378" y2="378" class="net_35"/>
  <line x1="127" x2="127" y1="378" y2="480.5" class="net_35"/>
  <circle cx="127" cy="480.5" r="2" style="fill:#000" class="net_35"/>
  <line x1="127" x2="146.57142857142858" y1="480.5" y2="480.5" class="net_35"/>
  <line x1="82" x2="127" y1="378" y2="378" class="net_35"/>
  <line x1="127" x2="127" y1="378" y2="500.5" class="net_35"/>
  <circle cx="127" cy="500.5" r="2" style="fill:#000" class="net_35"/>
  <line x1="127" x2="146.57142857142858" y1="500.5" y2="500.5" class="net_35"/>
  <line x1="82" x2="127" y1="378" y2="378" class="net_35"/>
  <line x1="127" x2="127" y1="378" y2="540" class="net_35"/>
  <line x1="127" x2="147.07142857142858" y1="540" y2="540" class="net_35"/>
  <line x1="147.07142857142858" x2="147.07142857142858" y1="540" y2="521" class="net_35"/>
  <line x1="40" x2="77" y1="165" y2="165" class="net_4,5,6,7,8,9,10,11,12,13,14,15,16,17,18,19"/>
  <line x1="40" x2="77" y1="368" y2="368" class="net_20,21,22,23,24,25,26,27,28,29,30,31,32,33,34,35"/>
</svg>
